<svg width="31" height="26" viewBox="0 0 31 26" fill="none" xmlns="http://www.w3.org/2000/svg">
<g clip-path="url(#clip0_215_1434)">
<path fill-rule="evenodd" clip-rule="evenodd" d="M20.6624 3.87258C20.3939 4.07409 19.9973 4.04203 19.774 3.79472C19.5506 3.54741 19.5882 3.18789 19.8593 2.98408L23.6414 0.133103C23.91 -0.0684124 24.3065 -0.0363532 24.5299 0.208671C24.7507 0.453694 24.7156 0.815505 24.4445 1.01931L20.6624 3.87258ZM2.28877 13.9186C1.87215 14.0308 1.56597 14.2781 1.36268 14.6055C1.12928 14.9834 1.02387 15.4711 1.0314 15.9932C1.03391 16.2177 1.05901 16.4489 1.10167 16.6825C1.14434 16.9184 1.20959 17.1542 1.2899 17.3855C1.37272 17.6191 1.47311 17.8458 1.59107 18.0633C1.70651 18.274 1.83702 18.4755 1.98007 18.6587C2.33143 19.1053 2.76812 19.4602 3.27257 19.6388C3.71178 19.7968 4.20619 19.8197 4.73825 19.6526L4.74829 19.6503C4.80852 19.632 4.86875 19.6251 4.92899 19.6297C4.97165 19.632 5.01432 19.6388 5.05698 19.6503L5.06953 19.6457C5.21258 19.6022 5.36066 19.561 5.50622 19.5198L5.90527 19.4075C6.05083 19.3686 6.18886 19.332 6.31937 19.2976C6.44736 19.2633 6.57787 19.2312 6.71088 19.1992C6.84892 19.1648 6.98695 19.1854 7.1024 19.245L7.11495 19.2518C7.22287 19.3114 7.30569 19.4075 7.34333 19.5289C7.35086 19.5495 7.35337 19.5655 7.35588 19.5839C7.39102 19.7281 7.43368 19.877 7.4638 20.0212C7.73736 21.1387 8.00339 22.215 8.35726 23.0875C8.38737 23.1745 8.42502 23.2592 8.46016 23.3462C8.56807 23.621 8.68101 23.905 8.8065 24.1638C8.92696 24.4156 9.05496 24.6401 9.20052 24.8049V24.8072C9.30844 24.9309 9.43393 25.0087 9.582 25.0156C9.74513 25.0225 9.94842 24.9515 10.2044 24.7706C10.3148 24.6767 10.4152 24.5966 10.5181 24.5164L10.5407 24.4981C10.8419 24.2599 11.143 24.0241 11.2735 23.7012C11.2535 23.6874 11.2309 23.6737 11.2058 23.6623C11.1481 23.6325 11.0753 23.6027 11.0025 23.5752L10.995 23.5729C10.7264 23.4699 10.4604 23.3646 10.2672 23.1447C10.0714 22.9226 9.96598 22.5997 10.0388 22.073C10.0413 22.041 10.0463 22.0135 10.0513 21.986C10.0563 21.954 10.0614 21.9219 10.0639 21.8898C10.0965 21.6517 10.1141 21.528 10.104 21.4937V21.4891C10.0965 21.4799 10.0438 21.4456 9.93838 21.3563C9.90826 21.3311 9.87564 21.3059 9.84803 21.2784C9.69243 21.1456 9.582 20.9876 9.51173 20.8136C9.43393 20.6212 9.40381 20.4105 9.40632 20.1907C9.40883 19.9754 9.44396 19.751 9.49667 19.5381C9.56192 19.2793 9.65478 19.032 9.74764 18.8282L9.75266 18.8213C9.7878 18.7458 9.84301 18.6839 9.90826 18.6381C9.97853 18.5877 10.0639 18.5557 10.1517 18.5442H10.1567C12.0566 18.3038 13.59 18.3359 14.8775 18.487C16.0395 18.6244 16.9957 18.8557 17.8465 19.0755C17.1965 18.4 16.5992 17.6054 16.0596 16.7398C15.3644 15.6223 14.7671 14.3834 14.2852 13.1285C13.7983 11.8599 13.4294 10.5729 13.1985 9.37302C13.0052 8.36544 12.9074 7.41741 12.9199 6.59532C12.1946 7.54564 11.2183 8.69977 9.78278 9.86307C8.14393 11.1889 5.90527 12.5263 2.75306 13.5842C2.72044 13.5934 2.68781 13.6048 2.65518 13.614L2.64013 13.6369C2.64013 13.6369 2.64264 13.6346 2.58491 13.717L2.57989 13.7239C2.54727 13.7697 2.50711 13.8086 2.46194 13.8407C2.41174 13.875 2.35653 13.9025 2.2963 13.9186H2.28877ZM16.6067 15.691C17.0785 16.5176 17.6005 17.2871 18.1652 17.9534C18.7023 18.5855 19.2795 19.1282 19.8869 19.5381L19.9496 19.5426C19.9797 19.5449 20.0099 19.5449 20.035 19.5426H20.045C20.0927 19.5404 20.1404 19.5335 20.1906 19.5198C20.2382 19.506 20.2884 19.4854 20.3411 19.4579C20.4691 19.3388 20.5746 19.1831 20.6599 18.9999C20.7553 18.7984 20.8255 18.5603 20.8707 18.2946C21.0087 17.5092 20.9435 16.5039 20.7302 15.3933C20.4967 14.1796 20.0826 12.8446 19.5606 11.537C19.0486 10.2524 18.4313 8.99747 17.7737 7.91203C17.1488 6.87698 16.4887 5.99764 15.8513 5.39539C15.6128 5.16868 15.3819 4.98778 15.1636 4.85725C14.9603 4.73589 14.7721 4.65803 14.5989 4.63284H14.5939C14.5537 4.62597 14.5211 4.62368 14.496 4.62139C14.486 4.62139 14.496 4.61452 14.491 4.61681C14.4885 4.61681 14.4885 4.62139 14.4759 4.63055C14.4534 4.64887 14.4207 4.67635 14.3831 4.7107C14.3505 4.73818 14.3178 4.77252 14.2877 4.80458L14.2777 4.8229C13.9865 5.37249 13.8862 6.24267 13.9489 7.30291C14.0142 8.37918 14.2501 9.64552 14.6341 10.9599C15.7258 10.731 16.5791 10.9416 17.1664 11.3882C17.5102 11.6492 17.7587 11.9881 17.9117 12.366C18.0623 12.7415 18.1175 13.156 18.0724 13.5705C17.987 14.3857 17.5077 15.1918 16.6067 15.691ZM19.799 20.4747C19.7489 20.4815 19.6987 20.4815 19.6485 20.4747C19.6008 20.4678 19.5531 20.4563 19.5079 20.4357C19.4402 20.4243 19.3724 20.4128 19.3071 20.3991C18.8328 20.3098 18.371 20.1884 17.8741 20.0602L17.8415 20.051C16.1374 19.6091 14.0066 19.0549 10.5934 19.4396C10.5482 19.5587 10.5106 19.6869 10.4805 19.8129C10.4504 19.9457 10.4328 20.0785 10.4303 20.1999C10.4303 20.296 10.4403 20.3853 10.4629 20.4586C10.4805 20.5136 10.5081 20.5594 10.5457 20.5914L10.606 20.6418C10.8845 20.8731 11.0201 20.9876 11.0979 21.2487C11.1606 21.4593 11.133 21.654 11.0778 22.0387C11.0703 22.0914 11.0652 22.144 11.0552 22.1967C11.0301 22.3822 11.0627 22.4898 11.123 22.5562C11.1857 22.6249 11.2936 22.6684 11.4041 22.7096L11.4166 22.7142C11.768 22.8516 12.1193 22.9913 12.3 23.447C12.3201 23.4882 12.3326 23.534 12.3377 23.5798C12.3427 23.6256 12.3427 23.6714 12.3326 23.7195V23.7218C12.2548 24.0905 12.0892 24.3721 11.8809 24.6126C11.6776 24.8484 11.4367 25.0362 11.1983 25.224L11.143 25.2675C11.0602 25.3316 10.9799 25.3957 10.9021 25.4644L10.862 25.4965C10.3173 25.8927 9.85305 26.0346 9.44396 25.9957C9.02986 25.9568 8.68603 25.7324 8.3949 25.398C8.19413 25.169 8.02848 24.8874 7.88041 24.5874C7.73485 24.2897 7.60936 23.976 7.4889 23.6714C7.45627 23.5867 7.42113 23.502 7.386 23.4172C7.01456 22.5035 6.741 21.3929 6.45991 20.2457C6.36956 20.2686 6.27921 20.296 6.18886 20.3189C6.04832 20.3579 5.91029 20.3945 5.77727 20.4334C5.64175 20.4724 5.50873 20.5113 5.37823 20.5479L5.3707 20.5502C5.35062 20.5548 5.33556 20.5617 5.32301 20.5663L5.31548 20.5685C5.22011 20.6052 5.14984 20.6304 5.06953 20.6372C4.99675 20.6441 4.92899 20.6372 4.84868 20.6098C4.12337 20.793 3.45327 20.738 2.85596 20.5182C2.17834 20.2663 1.59609 19.7968 1.1343 19.2083L1.12928 19.2037C0.956108 18.977 0.800506 18.7343 0.662471 18.4778C0.521927 18.2191 0.403971 17.9489 0.306092 17.6741C0.208213 17.3993 0.132922 17.1176 0.0827273 16.8359C0.032533 16.5566 0.0049261 16.2772 -9.33303e-05 16.0024C-0.00762247 15.3108 0.140451 14.6559 0.469223 14.1269C0.76537 13.6529 1.20708 13.2819 1.8069 13.0759C1.82949 13.0438 1.84706 13.0163 1.86713 12.9934C1.89976 12.9545 1.9349 12.9201 1.98258 12.8835L1.99262 12.8766C2.04281 12.8377 2.0905 12.8125 2.14571 12.7873C2.19591 12.7667 2.25363 12.7461 2.33143 12.7209L2.4017 12.698C5.59155 11.6263 7.79759 10.2569 9.38122 8.91732C10.9649 7.5777 11.9286 6.26786 12.6238 5.31524L12.6388 5.29463C13.0278 4.76337 13.3416 4.33973 13.6553 4.05348C13.7356 3.98021 13.8058 3.92067 13.8811 3.87029C13.9589 3.81762 14.0393 3.7764 14.1321 3.74434C14.23 3.71228 14.3254 3.69396 14.4283 3.68938C14.5286 3.6848 14.6366 3.69396 14.762 3.71228C15.0582 3.75579 15.3594 3.868 15.663 4.04203C15.9717 4.21836 16.2829 4.4588 16.5916 4.75192C17.2793 5.40226 17.987 6.34113 18.6521 7.43802C19.3448 8.57841 19.9923 9.88825 20.5244 11.2279C21.0715 12.6018 21.5031 14.0079 21.7466 15.2971C21.97 16.4856 22.0352 17.5779 21.8796 18.4503C21.8144 18.8167 21.7115 19.1511 21.5684 19.4396C21.4279 19.7236 21.2446 19.9686 21.0188 20.1678C21.0087 20.177 20.9962 20.1861 20.9861 20.1953C20.9711 20.2044 20.956 20.2159 20.941 20.2251C20.7929 20.3144 20.6498 20.3785 20.5068 20.4197C20.3612 20.4632 20.2157 20.4838 20.0701 20.4907H20.0601C20.0099 20.4907 19.9622 20.4907 19.917 20.4884C19.8819 20.4815 19.8392 20.4792 19.799 20.4747ZM25.9755 17.9718C25.6266 17.9855 25.3355 17.7382 25.3229 17.4199C25.3079 17.1016 25.5789 16.8359 25.9278 16.8245L30.3449 16.6734C30.6912 16.6642 30.9823 16.9115 30.9974 17.2252C31.0099 17.5435 30.7414 17.8092 30.3926 17.8229L25.9755 17.9718ZM25.85 14.0559C25.5036 14.0972 25.1874 13.875 25.1422 13.5636C25.0971 13.2476 25.3405 12.9591 25.6818 12.9178L29.7626 12.4232C30.109 12.382 30.4252 12.6041 30.4704 12.9156C30.5155 13.2316 30.2721 13.5201 29.9308 13.5613L25.85 14.0559ZM24.9916 10.4607C24.6629 10.5638 24.3015 10.4058 24.1885 10.1058C24.0731 9.80582 24.2488 9.47607 24.5775 9.37302L28.7612 8.04714C29.09 7.93951 29.4514 8.1021 29.5644 8.40208C29.6798 8.70206 29.5041 9.03182 29.1753 9.13486L24.9916 10.4607ZM23.019 7.00064C22.7178 7.15864 22.3314 7.06247 22.1607 6.78538C21.9875 6.51059 22.0929 6.16023 22.3966 6.00222L26.362 3.92754C26.6631 3.76953 27.0496 3.86571 27.2203 4.14279C27.3934 4.41758 27.288 4.76795 26.9844 4.92595L23.019 7.00064Z" fill="#1B52B1"/>
</g>
<defs>
<clipPath id="clip0_215_1434">
<rect width="31" height="26" fill="white"/>
</clipPath>
</defs>
</svg>
