<svg width="25" height="24" viewBox="0 0 25 24" fill="none" xmlns="http://www.w3.org/2000/svg">
<g clip-path="url(#clip0_238_1651)">
<path d="M23 2.24738L16.9948 2.24741V0.752655C16.9948 0.33828 16.6591 0.00265503 16.2448 0.00265503C15.8304 0.00265503 15.4948 0.33828 15.4948 0.752655V2.24703H9.49475V0.752655C9.49475 0.33828 9.15913 0.00265503 8.74475 0.00265503C8.33038 0.00265503 7.99475 0.33828 7.99475 0.752655V2.24703H2C1.17162 2.24703 0.5 2.91865 0.5 3.74703V22.497C0.5 23.3254 1.17162 23.997 2 23.997H23C23.8284 23.997 24.5 23.3254 24.5 22.497V3.74703C24.5 2.91901 23.8284 2.24738 23 2.24738ZM23 22.497H2V3.74703H7.99475V4.50266C7.99475 4.91701 8.33038 5.25266 8.74475 5.25266C9.15913 5.25266 9.49475 4.91701 9.49475 4.50266V3.74741H15.4948V4.50303C15.4948 4.9174 15.8304 5.25303 16.2448 5.25303C16.6591 5.25303 16.9948 4.9174 16.9948 4.50303V3.74741H23V22.497ZM17.75 11.9974H19.25C19.664 11.9974 20 11.6614 20 11.2474V9.74738C20 9.33338 19.664 8.99738 19.25 8.99738H17.75C17.336 8.99738 17 9.33338 17 9.74738V11.2474C17 11.6614 17.336 11.9974 17.75 11.9974ZM17.75 17.997H19.25C19.664 17.997 20 17.6614 20 17.247V15.747C20 15.333 19.664 14.997 19.25 14.997H17.75C17.336 14.997 17 15.333 17 15.747V17.247C17 17.6618 17.336 17.997 17.75 17.997ZM13.25 14.997H11.75C11.336 14.997 11 15.333 11 15.747V17.247C11 17.6614 11.336 17.997 11.75 17.997H13.25C13.664 17.997 14 17.6614 14 17.247V15.747C14 15.3334 13.664 14.997 13.25 14.997ZM13.25 8.99738H11.75C11.336 8.99738 11 9.33338 11 9.74738V11.2474C11 11.6614 11.336 11.9974 11.75 11.9974H13.25C13.664 11.9974 14 11.6614 14 11.2474V9.74738C14 9.33301 13.664 8.99738 13.25 8.99738ZM7.25 8.99738H5.75C5.336 8.99738 5 9.33338 5 9.74738V11.2474C5 11.6614 5.336 11.9974 5.75 11.9974H7.25C7.664 11.9974 8 11.6614 8 11.2474V9.74738C8 9.33301 7.664 8.99738 7.25 8.99738ZM7.25 14.997H5.75C5.336 14.997 5 15.333 5 15.747V17.247C5 17.6614 5.336 17.997 5.75 17.997H7.25C7.664 17.997 8 17.6614 8 17.247V15.747C8 15.3334 7.664 14.997 7.25 14.997Z" fill="white"/>
</g>
<defs>
<clipPath id="clip0_238_1651">
<rect width="24" height="24" fill="white" transform="translate(0.5)"/>
</clipPath>
</defs>
</svg>
