<svg width="98" height="99" viewBox="0 0 98 99" fill="none" xmlns="http://www.w3.org/2000/svg">
<path d="M90.2886 27.2525L59.6636 10.4088C59.2114 10.16 58.7036 10.0296 58.1875 10.0296C57.6714 10.0296 57.1636 10.16 56.7114 10.4088L26.0864 27.2525C25.6062 27.5169 25.2058 27.9053 24.9269 28.3772C24.6481 28.8491 24.5009 29.3872 24.5009 29.9353C24.5009 30.4834 24.6481 31.0215 24.9269 31.4934C25.2058 31.9653 25.6062 32.3537 26.0864 32.618L55.125 48.589V81.4159L45.8272 76.3016L42.875 81.664L56.7114 89.2743C57.1634 89.5236 57.6712 89.6544 58.1875 89.6544C58.7037 89.6544 59.2116 89.5236 59.6636 89.2743L90.2886 72.4305C90.769 72.1663 91.1696 71.778 91.4486 71.3061C91.7276 70.8342 91.8749 70.296 91.875 69.7478V29.9353C91.8749 29.3871 91.7276 28.8489 91.4486 28.377C91.1696 27.9051 90.769 27.5168 90.2886 27.2525ZM58.1875 16.5889L82.4578 29.9353L58.1875 43.2817L33.9172 29.9353L58.1875 16.5889ZM85.75 67.9379L61.25 81.4129V48.5859L85.75 35.1109V67.9379Z" fill="white"/>
<path d="M30.625 49.8416H6.125V43.7166H30.625V49.8416ZM36.75 74.3416H12.25V68.2166H36.75V74.3416ZM42.875 62.0916H18.375V55.9666H42.875V62.0916Z" fill="white"/>
</svg>
