<svg width="28" height="29" viewBox="0 0 28 29" fill="none" xmlns="http://www.w3.org/2000/svg">
<path d="M20.6113 10.8845L13.1113 6.7595C13.0005 6.69857 12.8762 6.66663 12.7498 6.66663C12.6234 6.66663 12.499 6.69857 12.3883 6.7595L4.88827 10.8845C4.77068 10.9492 4.67262 11.0444 4.60432 11.1599C4.53603 11.2755 4.5 11.4073 4.5 11.5415C4.5 11.6757 4.53603 11.8075 4.60432 11.9231C4.67262 12.0386 4.77068 12.1338 4.88827 12.1985L11.9998 16.1097V24.149L9.72277 22.8965L8.99977 24.2097L12.3883 26.0735C12.499 26.1346 12.6233 26.1666 12.7498 26.1666C12.8762 26.1666 13.0006 26.1346 13.1113 26.0735L20.6113 21.9485C20.7289 21.8838 20.827 21.7887 20.8953 21.6731C20.9637 21.5575 20.9997 21.4258 20.9998 21.2915V11.5415C20.9997 11.4072 20.9637 11.2754 20.8953 11.1599C20.827 11.0443 20.7289 10.9492 20.6113 10.8845ZM12.7498 8.273L18.6935 11.5415L12.7498 14.81L6.80602 11.5415L12.7498 8.273ZM19.4998 20.8482L13.4998 24.1482V16.109L19.4998 12.809V20.8482Z" fill="black"/>
<g clip-path="url(#clip0_560_1098)">
<path fill-rule="evenodd" clip-rule="evenodd" d="M6.66676 15.6667C6.6667 15.5972 6.68837 15.5294 6.72875 15.4728C6.76913 15.4162 6.82618 15.3736 6.89194 15.3511C6.9577 15.3285 7.02886 15.3271 7.09547 15.347C7.16208 15.3669 7.22081 15.4071 7.26343 15.462L9.59676 18.462C9.64228 18.5205 9.66699 18.5925 9.66699 18.6667C9.66699 18.7408 9.64228 18.8128 9.59676 18.8713L7.26343 21.8713C7.22081 21.9263 7.16208 21.9665 7.09547 21.9864C7.02886 22.0063 6.9577 22.0048 6.89194 21.9823C6.82618 21.9597 6.76913 21.9172 6.72875 21.8606C6.68837 21.804 6.6667 21.7362 6.66676 21.6667V20.3367C4.87376 20.374 4.01243 20.7143 3.57976 21.0843C3.16843 21.436 3.09309 21.8497 3.01476 22.283L2.99443 22.3947C2.97947 22.4746 2.93583 22.5463 2.87171 22.5962C2.8076 22.6462 2.72743 22.671 2.6463 22.666C2.56516 22.661 2.48864 22.6266 2.43115 22.5691C2.37365 22.5116 2.33914 22.4351 2.33409 22.354C2.27709 21.438 2.36276 20.1107 3.00976 19.0003C3.63776 17.9227 4.76876 17.094 6.66676 17.0073V15.6667Z" fill="#2EBD59"/>
</g>
<defs>
<clipPath id="clip0_560_1098">
<rect width="8" height="8" fill="white" transform="matrix(-1 0 0 1 10 15)"/>
</clipPath>
</defs>
</svg>
