<svg width="98" height="99" viewBox="0 0 98 99" fill="none" xmlns="http://www.w3.org/2000/svg">
<path d="M49.294 5.74155C63.7 5.74155 73.5 15.0026 73.5 27.9386C73.5941 31.9709 72.6022 35.9543 70.628 39.4716C68.6539 42.9889 65.7702 45.9105 62.279 47.9306C55.321 52.4386 53.361 55.4276 53.361 61.2096V64.5416H41.062V60.5726C40.6136 56.8144 41.309 53.0085 43.0573 49.6517C44.8056 46.2949 47.5256 43.5434 50.862 41.7566C57.428 37.3466 59.633 34.2596 59.633 28.4776C59.659 27.1181 59.4152 25.7669 58.9159 24.5022C58.4165 23.2374 57.6714 22.0842 56.7237 21.1092C55.776 20.1341 54.6444 19.3565 53.3944 18.8214C52.1444 18.2863 50.8007 18.0043 49.441 17.9916H48.608C47.1278 17.9392 45.6518 18.1791 44.2643 18.6976C42.8769 19.216 41.6053 20.0029 40.5222 21.0132C39.4391 22.0235 38.5657 23.2374 37.9521 24.5854C37.3385 25.9335 36.9966 27.3893 36.946 28.8696V29.7026H24.5C24.2612 23.5967 26.4535 17.6454 30.5962 13.1537C34.7389 8.6619 40.4939 5.99635 46.599 5.74155C47.4967 5.69211 48.3964 5.69211 49.294 5.74155Z" fill="white"/>
<path d="M49 93.9416C54.4124 93.9416 58.8 89.5539 58.8 84.1416C58.8 78.7292 54.4124 74.3416 49 74.3416C43.5876 74.3416 39.2 78.7292 39.2 84.1416C39.2 89.5539 43.5876 93.9416 49 93.9416Z" fill="white"/>
</svg>
