<svg width="28" height="29" viewBox="0 0 28 29" fill="none" xmlns="http://www.w3.org/2000/svg">
<path d="M20.6113 10.8845L13.1113 6.7595C13.0005 6.69857 12.8762 6.66663 12.7498 6.66663C12.6234 6.66663 12.499 6.69857 12.3883 6.7595L4.88827 10.8845C4.77068 10.9492 4.67262 11.0444 4.60432 11.1599C4.53603 11.2755 4.5 11.4073 4.5 11.5415C4.5 11.6757 4.53603 11.8075 4.60432 11.9231C4.67262 12.0386 4.77068 12.1338 4.88827 12.1985L11.9998 16.1097V24.149L9.72277 22.8965L8.99977 24.2097L12.3883 26.0735C12.499 26.1346 12.6233 26.1666 12.7498 26.1666C12.8762 26.1666 13.0006 26.1346 13.1113 26.0735L20.6113 21.9485C20.7289 21.8838 20.827 21.7887 20.8953 21.6731C20.9637 21.5575 20.9997 21.4258 20.9998 21.2915V11.5415C20.9997 11.4072 20.9637 11.2754 20.8953 11.1599C20.827 11.0443 20.7289 10.9492 20.6113 10.8845ZM12.7498 8.273L18.6935 11.5415L12.7498 14.81L6.80602 11.5415L12.7498 8.273ZM19.4998 20.8482L13.4998 24.1482V16.109L19.4998 12.809V20.8482Z" fill="black"/>
<path d="M5.25 16H4.625C4.45924 16 4.30027 16.0632 4.18306 16.1757C4.06585 16.2883 4 16.4409 4 16.6V21.4C4 21.5591 4.06585 21.7117 4.18306 21.8243C4.30027 21.9368 4.45924 22 4.625 22H5.25C5.41576 22 5.57473 21.9368 5.69194 21.8243C5.80915 21.7117 5.875 21.5591 5.875 21.4V16.6C5.875 16.4409 5.80915 16.2883 5.69194 16.1757C5.57473 16.0632 5.41576 16 5.25 16ZM8.375 16H7.75C7.58424 16 7.42527 16.0632 7.30806 16.1757C7.19085 16.2883 7.125 16.4409 7.125 16.6V21.4C7.125 21.5591 7.19085 21.7117 7.30806 21.8243C7.42527 21.9368 7.58424 22 7.75 22H8.375C8.54076 22 8.69973 21.9368 8.81694 21.8243C8.93415 21.7117 9 21.5591 9 21.4V16.6C9 16.4409 8.93415 16.2883 8.81694 16.1757C8.69973 16.0632 8.54076 16 8.375 16Z" fill="#FFA319"/>
</svg>
