<svg width="24" height="25" viewBox="0 0 24 25" fill="none" xmlns="http://www.w3.org/2000/svg">
<path d="M12 22.5792C13.1 22.5792 14 21.6792 14 20.5792H10C10 21.6792 10.9 22.5792 12 22.5792ZM18 16.5792V11.5792C18 8.50922 16.37 5.93922 13.5 5.25922V4.57922C13.5 3.74922 12.83 3.07922 12 3.07922C11.17 3.07922 10.5 3.74922 10.5 4.57922V5.25922C7.64 5.93922 6 8.49922 6 11.5792V16.5792L4 18.5792V19.5792H20V18.5792L18 16.5792ZM16 17.5792H8V11.5792C8 9.09922 9.51 7.07922 12 7.07922C14.49 7.07922 16 9.09922 16 11.5792V17.5792Z" fill="#1B52B1"/>
<circle cx="17" cy="8.57922" r="4.5" fill="#F7685B" stroke="white"/>
</svg>
