<svg width="25" height="24" viewBox="0 0 25 24" fill="none" xmlns="http://www.w3.org/2000/svg">
<path d="M21.342 10.962C21.816 11.582 21.816 12.419 21.342 13.038C19.849 14.987 16.267 19 12.085 19C7.90297 19 4.32097 14.987 2.82797 13.038C2.59736 12.7411 2.47217 12.3759 2.47217 12C2.47217 11.6241 2.59736 11.2589 2.82797 10.962C4.32097 9.013 7.90297 5 12.085 5C16.267 5 19.849 9.013 21.342 10.962V10.962Z" stroke="#1B52B1" stroke-width="2" stroke-linecap="round" stroke-linejoin="round"/>
<path d="M12.085 15C13.7418 15 15.085 13.6569 15.085 12C15.085 10.3431 13.7418 9 12.085 9C10.4281 9 9.08496 10.3431 9.08496 12C9.08496 13.6569 10.4281 15 12.085 15Z" stroke="#1B52B1" stroke-width="2" stroke-linecap="round" stroke-linejoin="round"/>
</svg>
