<svg width="36" height="35" viewBox="0 0 36 35" fill="none" xmlns="http://www.w3.org/2000/svg">
<rect x="0.5" width="35" height="35" rx="6" fill="white"/>
<path d="M18 8.49994C13.0312 8.49994 9 12.5312 9 17.4999C9 22.4687 13.0312 26.4999 18 26.4999C22.9687 26.4999 27 22.4687 27 17.4999C27 12.5312 22.9687 8.49994 18 8.49994ZM17.7187 22.7499C17.5333 22.7499 17.3521 22.695 17.1979 22.5919C17.0437 22.4889 16.9236 22.3425 16.8526 22.1712C16.7817 21.9999 16.7631 21.8114 16.7993 21.6295C16.8354 21.4477 16.9247 21.2806 17.0558 21.1495C17.1869 21.0184 17.354 20.9291 17.5359 20.893C17.7177 20.8568 17.9062 20.8753 18.0775 20.9463C18.2488 21.0173 18.3952 21.1374 18.4983 21.2916C18.6013 21.4458 18.6562 21.627 18.6562 21.8124C18.6562 22.0611 18.5575 22.2995 18.3817 22.4753C18.2058 22.6512 17.9674 22.7499 17.7187 22.7499ZM19.2862 17.9687C18.5264 18.4787 18.4219 18.946 18.4219 19.3749C18.4219 19.549 18.3527 19.7159 18.2297 19.839C18.1066 19.962 17.9397 20.0312 17.7656 20.0312C17.5916 20.0312 17.4247 19.962 17.3016 19.839C17.1785 19.7159 17.1094 19.549 17.1094 19.3749C17.1094 18.3479 17.5819 17.5313 18.5541 16.8784C19.4578 16.2718 19.9687 15.8874 19.9687 15.0423C19.9687 14.4676 19.6406 14.0312 18.9614 13.7082C18.8016 13.6323 18.4458 13.5582 18.008 13.5634C17.4586 13.5704 17.032 13.7017 16.7034 13.966C16.0837 14.4648 16.0312 15.0076 16.0312 15.0156C16.0271 15.1017 16.006 15.1863 15.9692 15.2643C15.9324 15.3423 15.8805 15.4123 15.8167 15.4703C15.7528 15.5283 15.6781 15.5732 15.5969 15.6023C15.5157 15.6315 15.4295 15.6443 15.3434 15.6402C15.2572 15.636 15.1727 15.6149 15.0946 15.5781C15.0166 15.5413 14.9466 15.4895 14.8886 15.4256C14.8306 15.3617 14.7857 15.287 14.7566 15.2058C14.7275 15.1246 14.7146 15.0385 14.7187 14.9523C14.7239 14.8384 14.8031 13.8123 15.8798 12.946C16.4381 12.497 17.1483 12.2635 17.9892 12.2532C18.5845 12.2462 19.1437 12.347 19.523 12.526C20.6578 13.0628 21.2812 13.9576 21.2812 15.0423C21.2812 16.6281 20.2214 17.3401 19.2862 17.9687Z" fill="#FFA407"/>
</svg>
