<svg width="98" height="99" viewBox="0 0 98 99" fill="none" xmlns="http://www.w3.org/2000/svg">
<path fill-rule="evenodd" clip-rule="evenodd" d="M58.7428 51.2033C58.1796 49.6109 57.1366 48.2322 55.7575 47.257C54.3783 46.2819 52.7307 45.7582 51.0416 45.7582V43.7166H46.9583V45.7582C44.7924 45.7582 42.7151 46.6186 41.1836 48.1502C39.652 49.6817 38.7916 51.759 38.7916 53.9249C38.7916 56.0908 39.652 58.168 41.1836 59.6996C42.7151 61.2311 44.7924 62.0916 46.9583 62.0916V70.2582C45.182 70.2582 43.6692 69.1251 43.1057 67.5367C43.0221 67.2768 42.8872 67.0363 42.709 66.8295C42.5309 66.6227 42.313 66.4536 42.0684 66.3325C41.8238 66.2113 41.5574 66.1404 41.2849 66.124C41.0124 66.1076 40.7393 66.146 40.482 66.2369C40.2246 66.3278 39.988 66.4695 39.7863 66.6534C39.5846 66.8374 39.4218 67.0599 39.3077 67.3079C39.1935 67.5558 39.1301 67.8242 39.1215 68.097C39.1128 68.3699 39.1589 68.6417 39.2571 68.8964C39.8203 70.4889 40.8633 71.8676 42.2425 72.8427C43.6216 73.8179 45.2692 74.3415 46.9583 74.3416V76.3832H51.0416V74.3416C53.2076 74.3416 55.2848 73.4811 56.8163 71.9496C58.3479 70.418 59.2083 68.3408 59.2083 66.1749C59.2083 64.0089 58.3479 61.9317 56.8163 60.4002C55.2848 58.8686 53.2076 58.0082 51.0416 58.0082V49.8416C51.8861 49.8413 52.7098 50.103 53.3994 50.5904C54.0891 51.0778 54.6106 51.767 54.8922 52.5631C55.0725 53.0737 55.4483 53.4918 55.9369 53.7253C56.1788 53.841 56.4411 53.9079 56.7088 53.9221C56.9766 53.9364 57.2445 53.8978 57.4974 53.8085C57.7502 53.7192 57.983 53.581 58.1824 53.4018C58.3818 53.2225 58.544 53.0058 58.6596 52.7639C58.7753 52.5219 58.8421 52.2596 58.8564 51.9919C58.8707 51.7241 58.8321 51.4562 58.7428 51.2033ZM46.9583 49.8416C45.8753 49.8416 44.8367 50.2718 44.0709 51.0375C43.3052 51.8033 42.875 52.8419 42.875 53.9249C42.875 55.0079 43.3052 56.0465 44.0709 56.8122C44.8367 57.578 45.8753 58.0082 46.9583 58.0082V49.8416ZM51.0416 70.2582C52.1246 70.2582 53.1632 69.828 53.929 69.0622C54.6948 68.2965 55.125 67.2579 55.125 66.1749C55.125 65.0919 54.6948 64.0533 53.929 63.2875C53.1632 62.5218 52.1246 62.0916 51.0416 62.0916V70.2582Z" fill="white" fill-opacity="0.94"/>
<path fill-rule="evenodd" clip-rule="evenodd" d="M26.854 18.4428C31.8643 15.9907 40.084 13.0916 49.0796 13.0916C57.8874 13.0916 65.8907 15.8703 70.8744 18.2896L71.1561 18.4264C72.6588 19.1696 73.8716 19.8719 74.725 20.4416L67.1831 31.4666C84.5699 49.2413 98 86.5854 49.0796 86.5854C0.159231 86.5854 13.2279 49.9191 30.7659 31.4666L23.2729 20.4416C23.8507 20.0638 24.5837 19.6249 25.4575 19.1594C25.8904 18.9266 26.3559 18.6878 26.854 18.4448V18.4428ZM62.3361 31.3196L68.3733 22.4934C62.7588 22.8977 56.0784 24.2166 49.6472 26.0786C45.0534 27.4057 39.9493 27.2036 35.2228 26.3318C34.0318 26.111 32.8489 25.8481 31.6764 25.5437L35.5964 31.3155C43.9979 34.3065 53.9326 34.3065 62.3361 31.3196ZM33.2383 34.7945C43.0689 38.592 54.8841 38.592 64.7147 34.7904C68.8182 39.1161 72.2508 44.0318 74.8985 49.374C77.6589 55.0049 79.1615 60.6338 78.9165 65.4848C78.6797 70.1663 76.8381 74.166 72.6323 77.1386C68.2488 80.2358 60.8764 82.5021 49.0776 82.5021C37.2665 82.5021 29.8594 80.2746 25.4351 77.2121C21.1986 74.2762 19.3386 70.3317 19.0753 65.7135C18.7996 60.9156 20.2696 55.3153 23.0198 49.6456C25.6433 44.2392 29.304 39.035 33.2383 34.7945ZM30.8904 21.0867C32.5237 21.5726 34.2306 21.9953 35.9619 22.3158C40.3515 23.1243 44.7533 23.2427 48.51 22.1545C52.8878 20.8792 57.3403 19.8762 61.8421 19.1512C58.0854 18.0201 53.6917 17.1749 49.0776 17.1749C42.044 17.1749 35.4841 19.1369 30.8904 21.0867Z" fill="white" fill-opacity="0.94"/>
</svg>
