<svg width="28" height="29" viewBox="0 0 28 29" fill="none" xmlns="http://www.w3.org/2000/svg">
<path d="M20.6113 10.8845L13.1113 6.7595C13.0005 6.69857 12.8762 6.66663 12.7498 6.66663C12.6234 6.66663 12.499 6.69857 12.3883 6.7595L4.88827 10.8845C4.77068 10.9492 4.67262 11.0444 4.60432 11.1599C4.53603 11.2755 4.5 11.4073 4.5 11.5415C4.5 11.6757 4.53603 11.8075 4.60432 11.9231C4.67262 12.0386 4.77068 12.1338 4.88827 12.1985L11.9998 16.1097V24.149L9.72277 22.8965L8.99977 24.2097L12.3883 26.0735C12.499 26.1346 12.6233 26.1666 12.7498 26.1666C12.8762 26.1666 13.0006 26.1346 13.1113 26.0735L20.6113 21.9485C20.7289 21.8838 20.827 21.7887 20.8953 21.6731C20.9637 21.5575 20.9997 21.4258 20.9998 21.2915V11.5415C20.9997 11.4072 20.9637 11.2754 20.8953 11.1599C20.827 11.0443 20.7289 10.9492 20.6113 10.8845ZM12.7498 8.273L18.6935 11.5415L12.7498 14.81L6.80602 11.5415L12.7498 8.273ZM19.4998 20.8482L13.4998 24.1482V16.109L19.4998 12.809V20.8482Z" fill="black"/>
<g clip-path="url(#clip0_560_1092)">
<path fill-rule="evenodd" clip-rule="evenodd" d="M5.33324 14.6667C5.3333 14.5972 5.31163 14.5294 5.27125 14.4728C5.23087 14.4162 5.17382 14.3736 5.10806 14.3511C5.0423 14.3285 4.97114 14.3271 4.90453 14.347C4.83792 14.3669 4.77919 14.4071 4.73657 14.462L2.40324 17.462C2.35772 17.5205 2.33301 17.5925 2.33301 17.6667C2.33301 17.7408 2.35772 17.8128 2.40324 17.8713L4.73657 20.8713C4.77919 20.9263 4.83792 20.9665 4.90453 20.9864C4.97114 21.0063 5.0423 21.0048 5.10806 20.9823C5.17382 20.9597 5.23087 20.9172 5.27125 20.8606C5.31163 20.804 5.3333 20.7362 5.33324 20.6667V19.3367C7.12624 19.374 7.98757 19.7143 8.42024 20.0843C8.83157 20.436 8.90691 20.8497 8.98524 21.283L9.00557 21.3947C9.02053 21.4746 9.06417 21.5463 9.12829 21.5962C9.1924 21.6462 9.27257 21.671 9.3537 21.666C9.43484 21.661 9.51136 21.6266 9.56885 21.5691C9.62635 21.5116 9.66086 21.4351 9.66591 21.354C9.72291 20.438 9.63724 19.1107 8.99024 18.0003C8.36224 16.9227 7.23124 16.094 5.33324 16.0073V14.6667Z" fill="#1B52B1"/>
</g>
<defs>
<clipPath id="clip0_560_1092">
<rect width="8" height="8" fill="white" transform="translate(2 14)"/>
</clipPath>
</defs>
</svg>
