<svg width="99" height="99" viewBox="0 0 99 99" fill="none" xmlns="http://www.w3.org/2000/svg">
<path d="M66.3437 8.4978V12.8037C63.833 13.2349 61.4486 14.2158 59.3612 15.6763L56.2007 12.7057L51.9898 17.2076L55.0523 20.0771C53.6513 22.1189 52.7041 24.4372 52.2746 26.8759H47.9687V33.0009H52.2746C52.7217 35.5427 53.7262 37.858 55.1472 39.8915L51.8918 43.0459L56.3018 47.4559L59.4562 44.1974C61.4897 45.6184 63.8049 46.6229 66.3468 47.07V51.3728H72.4718V47.0669C74.9103 46.6385 77.2286 45.6924 79.2706 44.2923L82.1371 47.3548L86.6389 43.1408L83.6683 39.9864C85.1077 37.9346 86.0877 35.5611 86.5409 32.9978H90.8437V26.8728H86.5379C86.0971 24.3931 85.1164 22.0407 83.6652 19.9822L86.5379 17.1096L82.2289 12.8037L79.3594 15.6763C77.3009 14.2252 74.9484 13.2445 72.4687 12.8037V8.4978H66.3437ZM69.4062 18.6439C70.8919 18.6341 72.3648 18.9195 73.7393 19.4834C75.1138 20.0474 76.3626 20.8787 77.4133 21.9291C78.464 22.9795 79.2957 24.2281 79.86 25.6025C80.4243 26.9769 80.7101 28.4496 80.7007 29.9353C80.7007 36.2287 75.6997 41.2298 69.4062 41.2298C63.1128 41.2298 58.1117 36.2287 58.1117 29.9353C58.1117 23.6419 63.1128 18.6408 69.4062 18.6408V18.6439ZM29.6856 36.7279L24.0445 39.0248L26.2434 44.5679C23.3163 46.3196 20.8541 48.7503 19.0649 51.6545L13.6136 49.4496L11.3167 55.0999L16.768 57.2987C16.3378 58.9554 16.1135 60.6587 16.1004 62.3702C16.1004 64.1159 16.3607 65.8186 16.768 67.4417L11.3167 69.6467L13.6136 75.2909L19.0649 73.0859C20.8377 76.0282 23.3019 78.4934 26.2434 80.2675L24.0384 85.7187L29.6887 88.0156L31.8937 82.5644C33.5501 82.9957 35.2536 83.22 36.9652 83.232C38.7108 83.232 40.4197 82.9717 42.0367 82.5644L44.2417 88.0156L49.8859 85.7187L47.6809 80.2675C50.5872 78.4809 53.0184 76.0181 54.7675 73.089L60.3106 75.2879L62.6075 69.6437L57.0644 67.4387C57.4625 65.8156 57.732 64.1097 57.732 62.3672C57.732 60.6216 57.4656 58.9127 57.0582 57.2926L62.6106 55.0937L60.3137 49.4434L54.7706 51.6484C53.0115 48.7516 50.5808 46.3209 47.6839 44.5618L49.8889 39.0187L44.2386 36.7218L42.0428 42.2649C40.3847 41.8374 38.6805 41.6143 36.9682 41.6004C35.2226 41.6004 33.5199 41.8637 31.8967 42.268L29.6917 36.7249L29.6856 36.7279ZM36.9621 47.7284C45.1176 47.7284 51.6009 54.2209 51.6009 62.3733C51.607 70.5287 45.1176 77.1101 36.9621 77.1101C35.0262 77.1125 33.1088 76.7329 31.3197 75.9932C29.5307 75.2535 27.9052 74.1681 26.5363 72.7992C25.1674 71.4302 24.0819 69.8047 23.3422 68.0157C22.6025 66.2266 22.2229 64.3092 22.2254 62.3733C22.2254 54.2179 28.8097 47.7284 36.9621 47.7284V47.7284Z" fill="white"/>
</svg>
