<svg width="25" height="25" viewBox="0 0 25 25" fill="none" xmlns="http://www.w3.org/2000/svg">
<path d="M13.5714 6.74999C13.5714 7.01521 13.4661 7.26956 13.2785 7.4571C13.091 7.64463 12.8366 7.74999 12.5714 7.74999C12.3062 7.74999 12.0518 7.64463 11.8643 7.4571C11.6768 7.26956 11.5714 7.01521 11.5714 6.74999C11.5714 6.48477 11.6768 6.23042 11.8643 6.04288C12.0518 5.85535 12.3062 5.74999 12.5714 5.74999C12.8366 5.74999 13.091 5.85535 13.2785 6.04288C13.4661 6.23042 13.5714 6.48477 13.5714 6.74999ZM13.6034 2.82499C13.3038 2.60621 12.9424 2.48831 12.5714 2.48831C12.2004 2.48831 11.839 2.60621 11.5394 2.82499L4.11841 8.23999C3.14041 8.95299 3.64541 10.5 4.85441 10.5H5.07141V16.3C4.61985 16.5304 4.24078 16.8812 3.97607 17.3136C3.71136 17.7459 3.57132 18.243 3.57141 18.75V20.25C3.57141 20.663 3.90741 21 4.32141 21H20.8214C21.0203 21 21.2111 20.921 21.3517 20.7803C21.4924 20.6397 21.5714 20.4489 21.5714 20.25V18.75C21.5715 18.243 21.4315 17.7459 21.1668 17.3136C20.902 16.8812 20.523 16.5304 20.0714 16.3V10.5H20.2884C21.4984 10.5 22.0014 8.95299 21.0244 8.23999L13.6034 2.82399V2.82499ZM12.4234 4.03599C12.4662 4.0047 12.5179 3.98784 12.5709 3.98784C12.6239 3.98784 12.6756 4.0047 12.7184 4.03599L19.5214 8.99999H5.62141L12.4244 4.03599H12.4234ZM18.5714 10.5V16H16.5714V10.5H18.5714ZM15.0714 10.5V16H13.3214V10.5H15.0714ZM11.8214 10.5V16H10.0714V10.5H11.8214ZM6.32141 17.5H18.8214C19.5114 17.5 20.0714 18.06 20.0714 18.75V19.5H5.07141V18.75C5.07141 18.06 5.63141 17.5 6.32141 17.5ZM6.57141 16V10.5H8.57141V16H6.57141Z" fill="white"/>
</svg>
