<svg width="25" height="25" viewBox="0 0 25 25" fill="none" xmlns="http://www.w3.org/2000/svg">
<path d="M20.1019 4.60889H5.32908C4.94107 4.60889 4.62659 4.92426 4.62659 5.31138C4.62659 5.69851 4.94107 6.01388 5.32908 6.01388H20.1019C21.0869 6.01388 21.8895 6.81559 21.8895 7.80334V16.8808C21.8895 17.8668 21.0869 18.6685 20.1019 18.6685H5.39907C4.41398 18.6685 3.61138 17.8668 3.61138 16.8808V7.73335C3.61138 7.34445 3.29601 7.02997 2.90711 7.02997C2.51999 7.02997 2.20551 7.34445 2.20551 7.73335V16.8808C2.20551 18.6428 3.63796 20.0744 5.39907 20.0744H20.1019C21.863 20.0744 23.2954 18.6428 23.2954 16.8808V7.80334C23.2954 6.04045 21.863 4.60889 20.1019 4.60889ZM17.741 14.5891C17.314 14.5891 16.9685 14.2427 16.9685 13.8184C16.9685 13.4286 16.6532 13.1141 16.2652 13.1141C15.8771 13.1141 15.5627 13.4286 15.5627 13.8184C15.5627 14.7707 16.1828 15.5751 17.0376 15.8692V16.2669C17.0376 16.655 17.353 16.9712 17.741 16.9712C18.1299 16.9712 18.4435 16.655 18.4435 16.2669V15.8692C19.2993 15.5751 19.9185 14.7707 19.9185 13.8184C19.9185 12.6154 18.9423 11.6383 17.741 11.6383C17.314 11.6383 16.9685 11.2919 16.9685 10.8667C16.9685 10.4406 17.314 10.0942 17.741 10.0942C18.1662 10.0942 18.5126 10.4406 18.5126 10.8667C18.5126 11.2547 18.8271 11.5701 19.216 11.5701C19.604 11.5701 19.9185 11.2547 19.9185 10.8667C19.9185 9.91259 19.2993 9.10999 18.4435 8.815V8.41547C18.4435 8.02746 18.1299 7.71209 17.741 7.71209C17.353 7.71209 17.0376 8.02746 17.0376 8.41547V8.815C16.1828 9.10999 15.5627 9.91259 15.5627 10.8667C15.5627 12.0679 16.5398 13.0441 17.741 13.0441C18.1662 13.0441 18.5126 13.3905 18.5126 13.8184C18.5126 14.2427 18.1662 14.5891 17.741 14.5891ZM5.71975 16.5602H12.75C13.138 16.5602 13.4525 16.2439 13.4525 15.8568C13.4525 15.4697 13.138 15.1543 12.75 15.1543H5.71975C5.33174 15.1543 5.01726 15.4697 5.01726 15.8568C5.01726 16.2439 5.33174 16.5602 5.71975 16.5602ZM5.71975 9.5299H12.75C13.138 9.5299 13.4525 9.21453 13.4525 8.8274C13.4525 8.4385 13.138 8.12402 12.75 8.12402H5.71975C5.33174 8.12402 5.01726 8.4385 5.01726 8.8274C5.01726 9.21453 5.33174 9.5299 5.71975 9.5299ZM5.71975 13.0441H12.75C13.138 13.0441 13.4525 12.7297 13.4525 12.3408C13.4525 11.9528 13.138 11.6383 12.75 11.6383H5.71975C5.33174 11.6383 5.01726 11.9528 5.01726 12.3408C5.01726 12.7297 5.33174 13.0441 5.71975 13.0441Z" fill="white"/>
</svg>
