<svg width="25" height="25" viewBox="0 0 25 25" fill="none" xmlns="http://www.w3.org/2000/svg">
<path d="M20.1018 4.60889H5.32905C4.94104 4.60889 4.62656 4.92426 4.62656 5.31138C4.62656 5.69851 4.94104 6.01388 5.32905 6.01388H20.1018C21.0869 6.01388 21.8895 6.81559 21.8895 7.80334V16.8808C21.8895 17.8668 21.0869 18.6685 20.1018 18.6685H5.39904C4.41395 18.6685 3.61135 17.8668 3.61135 16.8808V7.73335C3.61135 7.34445 3.29598 7.02997 2.90708 7.02997C2.51996 7.02997 2.20547 7.34445 2.20547 7.73335V16.8808C2.20547 18.6428 3.63793 20.0744 5.39904 20.0744H20.1018C21.8629 20.0744 23.2954 18.6428 23.2954 16.8808V7.80334C23.2954 6.04045 21.8629 4.60889 20.1018 4.60889ZM17.741 14.5891C17.314 14.5891 16.9685 14.2427 16.9685 13.8184C16.9685 13.4286 16.6531 13.1141 16.2651 13.1141C15.8771 13.1141 15.5626 13.4286 15.5626 13.8184C15.5626 14.7707 16.1827 15.5751 17.0376 15.8692V16.2669C17.0376 16.655 17.353 16.9712 17.741 16.9712C18.1299 16.9712 18.4435 16.655 18.4435 16.2669V15.8692C19.2992 15.5751 19.9185 14.7707 19.9185 13.8184C19.9185 12.6154 18.9422 11.6383 17.741 11.6383C17.314 11.6383 16.9685 11.2919 16.9685 10.8667C16.9685 10.4406 17.314 10.0942 17.741 10.0942C18.1662 10.0942 18.5126 10.4406 18.5126 10.8667C18.5126 11.2547 18.8271 11.5701 19.216 11.5701C19.604 11.5701 19.9185 11.2547 19.9185 10.8667C19.9185 9.91259 19.2992 9.10999 18.4435 8.815V8.41547C18.4435 8.02746 18.1299 7.71209 17.741 7.71209C17.353 7.71209 17.0376 8.02746 17.0376 8.41547V8.815C16.1827 9.10999 15.5626 9.91259 15.5626 10.8667C15.5626 12.0679 16.5397 13.0441 17.741 13.0441C18.1662 13.0441 18.5126 13.3905 18.5126 13.8184C18.5126 14.2427 18.1662 14.5891 17.741 14.5891ZM5.71972 16.5602H12.75C13.138 16.5602 13.4525 16.2439 13.4525 15.8568C13.4525 15.4697 13.138 15.1543 12.75 15.1543H5.71972C5.33171 15.1543 5.01723 15.4697 5.01723 15.8568C5.01723 16.2439 5.33171 16.5602 5.71972 16.5602ZM5.71972 9.5299H12.75C13.138 9.5299 13.4525 9.21453 13.4525 8.8274C13.4525 8.4385 13.138 8.12402 12.75 8.12402H5.71972C5.33171 8.12402 5.01723 8.4385 5.01723 8.8274C5.01723 9.21453 5.33171 9.5299 5.71972 9.5299ZM5.71972 13.0441H12.75C13.138 13.0441 13.4525 12.7297 13.4525 12.3408C13.4525 11.9528 13.138 11.6383 12.75 11.6383H5.71972C5.33171 11.6383 5.01723 11.9528 5.01723 12.3408C5.01723 12.7297 5.33171 13.0441 5.71972 13.0441Z" fill="black"/>
</svg>
