<svg width="24" height="24" viewBox="0 0 24 24" fill="none" xmlns="http://www.w3.org/2000/svg">
<path d="M22.1115 6.46812L14.6115 2.34312C14.5008 2.28219 14.3764 2.25024 14.25 2.25024C14.1236 2.25024 13.9993 2.28219 13.8885 2.34312L6.38851 6.46812C6.27092 6.53286 6.17286 6.62798 6.10457 6.74354C6.03627 6.8591 6.00024 6.99088 6.00024 7.12512C6.00024 7.25935 6.03627 7.39113 6.10457 7.50669C6.17286 7.62226 6.27092 7.71737 6.38851 7.78212L13.5 11.6934V19.7326L11.223 18.4801L10.5 19.7934L13.8885 21.6571C13.9992 21.7182 14.1236 21.7502 14.25 21.7502C14.3764 21.7502 14.5008 21.7182 14.6115 21.6571L22.1115 17.5321C22.2291 17.4674 22.3273 17.3723 22.3956 17.2567C22.4639 17.1412 22.5 17.0094 22.5 16.8751V7.12512C22.5 6.99086 22.4639 6.85907 22.3956 6.7435C22.3273 6.62793 22.2291 6.53283 22.1115 6.46812ZM14.25 3.85662L20.1938 7.12512L14.25 10.3936L8.30626 7.12512L14.25 3.85662ZM21 16.4319L15 19.7319V11.6926L21 8.39262V16.4319Z" fill="black"/>
<path d="M7.5 12H1.5V10.5H7.5V12ZM9 18H3V16.5H9V18ZM10.5 15H4.5V13.5H10.5V15Z" fill="black"/>
</svg>
