<svg width="25" height="25" viewBox="0 0 25 25" fill="none" xmlns="http://www.w3.org/2000/svg">
<path d="M22.8258 6.96799L15.3258 2.84299C15.2151 2.78207 15.0907 2.75012 14.9643 2.75012C14.8379 2.75012 14.7136 2.78207 14.6028 2.84299L7.10281 6.96799C6.98521 7.03274 6.88716 7.12785 6.81886 7.24342C6.75057 7.35898 6.71454 7.49076 6.71454 7.62499C6.71454 7.75923 6.75057 7.89101 6.81886 8.00657C6.88716 8.12213 6.98521 8.21725 7.10281 8.28199L14.2143 12.1932V20.2325L11.9373 18.98L11.2143 20.2932L14.6028 22.157C14.7135 22.2181 14.8379 22.2501 14.9643 22.2501C15.0907 22.2501 15.2151 22.2181 15.3258 22.157L22.8258 18.032C22.9434 17.9673 23.0415 17.8722 23.1099 17.7566C23.1782 17.641 23.2143 17.5093 23.2143 17.375V7.62499C23.2143 7.49073 23.1782 7.35894 23.1099 7.24338C23.0415 7.12781 22.9434 7.03271 22.8258 6.96799ZM14.9643 4.35649L20.9081 7.62499L14.9643 10.8935L9.02056 7.62499L14.9643 4.35649ZM21.7143 16.9317L15.7143 20.2317V12.1925L21.7143 8.89249V16.9317Z" fill="white"/>
<path d="M8.21429 12.5H2.21429V11H8.21429V12.5ZM9.71429 18.5H3.71429V17H9.71429V18.5ZM11.2143 15.5H5.21429V14H11.2143V15.5Z" fill="white"/>
</svg>
