<svg width="25" height="25" viewBox="0 0 25 25" fill="none" xmlns="http://www.w3.org/2000/svg">
<path d="M20.3571 9.5H14.3571V3.5H5.35712V21.5H20.3571V9.5ZM19.7361 8L15.8571 4.121V8H19.7361ZM4.60712 2H15.8571L21.8571 8V22.25C21.8571 22.4489 21.7781 22.6397 21.6374 22.7803C21.4968 22.921 21.306 23 21.1071 23H4.60712C4.4082 23 4.21744 22.921 4.07679 22.7803C3.93613 22.6397 3.85712 22.4489 3.85712 22.25V2.75C3.85712 2.55109 3.93613 2.36032 4.07679 2.21967C4.21744 2.07902 4.4082 2 4.60712 2ZM8.35712 12.5H17.3571V14H8.35712V12.5ZM8.35712 8H12.1071V9.5H8.35712V8ZM8.35712 17H17.3571V18.5H8.35712V17Z" fill="white"/>
</svg>
