<svg width="24" height="24" viewBox="0 0 24 24" fill="none" xmlns="http://www.w3.org/2000/svg">
<path d="M12.072 1.2C15.6 1.2 18 3.468 18 6.636C18.023 7.62351 17.7801 8.59905 17.2966 9.46042C16.8132 10.3218 16.107 11.0373 15.252 11.532C13.548 12.636 13.068 13.368 13.068 14.784V15.6H10.056V14.628C9.94618 13.7076 10.1165 12.7756 10.5446 11.9535C10.9728 11.1314 11.6389 10.4576 12.456 10.02C14.064 8.94 14.604 8.184 14.604 6.768C14.6103 6.43506 14.5507 6.10417 14.4284 5.79443C14.3061 5.4847 14.1236 5.20228 13.8915 4.96349C13.6594 4.7247 13.3823 4.53428 13.0762 4.40323C12.77 4.27219 12.441 4.20311 12.108 4.2H11.904C11.5415 4.18717 11.18 4.24592 10.8402 4.3729C10.5005 4.49987 10.189 4.69258 9.92379 4.94C9.65854 5.18741 9.44466 5.48469 9.29438 5.81483C9.14411 6.14496 9.06038 6.50148 9.04799 6.864V7.068H5.99999C5.9415 5.5727 6.47839 4.11523 7.49293 3.01521C8.50747 1.91519 9.91685 1.2624 11.412 1.2C11.6318 1.18789 11.8522 1.18789 12.072 1.2Z" fill="black"/>
<path d="M12 22.8C13.3255 22.8 14.4 21.7255 14.4 20.4C14.4 19.0745 13.3255 18 12 18C10.6745 18 9.60001 19.0745 9.60001 20.4C9.60001 21.7255 10.6745 22.8 12 22.8Z" fill="black"/>
</svg>
