<svg width="25" height="25" viewBox="0 0 25 25" fill="none" xmlns="http://www.w3.org/2000/svg">
<path d="M12.3576 1.7C15.8856 1.7 18.2856 3.968 18.2856 7.136C18.3087 8.12351 18.0658 9.09905 17.5823 9.96042C17.0988 10.8218 16.3926 11.5373 15.5376 12.032C13.8336 13.136 13.3536 13.868 13.3536 15.284V16.1H10.3416V15.128C10.2318 14.2076 10.4021 13.2756 10.8303 12.4535C11.2584 11.6314 11.9246 10.9576 12.7416 10.52C14.3496 9.44 14.8896 8.684 14.8896 7.268C14.896 6.93506 14.8363 6.60417 14.714 6.29444C14.5917 5.9847 14.4093 5.70228 14.1772 5.46349C13.9451 5.2247 13.6679 5.03428 13.3618 4.90323C13.0557 4.77219 12.7266 4.70311 12.3936 4.7H12.1896C11.8271 4.68717 11.4657 4.74592 11.1259 4.8729C10.7861 4.99987 10.4747 5.19258 10.2094 5.44C9.94418 5.68741 9.7303 5.98469 9.58003 6.31483C9.42975 6.64496 9.34602 7.00148 9.33363 7.364V7.568H6.28563C6.22714 6.0727 6.76404 4.61523 7.77858 3.51521C8.79312 2.41519 10.2025 1.7624 11.6976 1.7C11.9175 1.68789 12.1378 1.68789 12.3576 1.7Z" fill="white"/>
<path d="M12.2857 23.3C13.6111 23.3 14.6857 22.2255 14.6857 20.9C14.6857 19.5745 13.6111 18.5 12.2857 18.5C10.9602 18.5 9.88565 19.5745 9.88565 20.9C9.88565 22.2255 10.9602 23.3 12.2857 23.3Z" fill="white"/>
</svg>
