<svg width="21" height="21" viewBox="0 0 21 21" fill="none" xmlns="http://www.w3.org/2000/svg">
<path d="M6.14282 9C6.14282 8.86739 6.1955 8.74021 6.28927 8.64645C6.38304 8.55268 6.51021 8.5 6.64282 8.5H13.6428C13.7754 8.5 13.9026 8.55268 13.9964 8.64645C14.0901 8.74021 14.1428 8.86739 14.1428 9C14.1428 9.13261 14.0901 9.25979 13.9964 9.35355C13.9026 9.44732 13.7754 9.5 13.6428 9.5H6.64282C6.51021 9.5 6.38304 9.44732 6.28927 9.35355C6.1955 9.25979 6.14282 9.13261 6.14282 9ZM6.64282 11.5C6.51021 11.5 6.38304 11.5527 6.28927 11.6464C6.1955 11.7402 6.14282 11.8674 6.14282 12C6.14282 12.1326 6.1955 12.2598 6.28927 12.3536C6.38304 12.4473 6.51021 12.5 6.64282 12.5H9.64282C9.77543 12.5 9.90261 12.4473 9.99638 12.3536C10.0901 12.2598 10.1428 12.1326 10.1428 12C10.1428 11.8674 10.0901 11.7402 9.99638 11.6464C9.90261 11.5527 9.77543 11.5 9.64282 11.5H6.64282ZM6.14282 15C6.14282 14.8674 6.1955 14.7402 6.28927 14.6464C6.38304 14.5527 6.51021 14.5 6.64282 14.5H11.0868L10.4168 15.17C10.3134 15.2733 10.2172 15.3836 10.1288 15.5H6.64282C6.51021 15.5 6.38304 15.4473 6.28927 15.3536C6.1955 15.2598 6.14282 15.1326 6.14282 15ZM9.36382 17.5H5.64282C5.51021 17.5 5.38304 17.4473 5.28927 17.3536C5.1955 17.2598 5.14282 17.1326 5.14282 17V5C5.14282 4.86739 5.1955 4.74022 5.28927 4.64645C5.38304 4.55268 5.51021 4.5 5.64282 4.5H7.22782C7.33126 4.79258 7.5229 5.04587 7.77633 5.22497C8.02976 5.40407 8.3325 5.50016 8.64282 5.5H11.6428C11.9531 5.50016 12.2559 5.40407 12.5093 5.22497C12.7627 5.04587 12.9544 4.79258 13.0578 4.5H14.6428C14.7754 4.5 14.9026 4.55268 14.9964 4.64645C15.0901 4.74022 15.1428 4.86739 15.1428 5V10.444L15.2458 10.341C15.5118 10.075 15.8168 9.871 16.1428 9.732V5C16.1428 4.60218 15.9848 4.22064 15.7035 3.93934C15.4222 3.65804 15.0406 3.5 14.6428 3.5H13.0578C12.9544 3.20742 12.7627 2.95413 12.5093 2.77503C12.2559 2.59593 11.9531 2.49984 11.6428 2.5H8.64282C8.3325 2.49984 8.02976 2.59593 7.77633 2.77503C7.5229 2.95413 7.33126 3.20742 7.22782 3.5H5.64282C5.245 3.5 4.86347 3.65804 4.58216 3.93934C4.30086 4.22064 4.14282 4.60218 4.14282 5V17C4.14282 17.3978 4.30086 17.7794 4.58216 18.0607C4.86347 18.342 5.245 18.5 5.64282 18.5H9.14682C9.15429 18.3829 9.17237 18.2668 9.20082 18.153L9.36382 17.5ZM12.1428 4C12.1428 4.13261 12.0901 4.25979 11.9964 4.35355C11.9026 4.44732 11.7754 4.5 11.6428 4.5H8.64282C8.51021 4.5 8.38304 4.44732 8.28927 4.35355C8.1955 4.25979 8.14282 4.13261 8.14282 4C8.14282 3.86739 8.1955 3.74022 8.28927 3.64645C8.38304 3.55268 8.51021 3.5 8.64282 3.5H11.6428C11.7754 3.5 11.9026 3.55268 11.9964 3.64645C12.0901 3.74022 12.1428 3.86739 12.1428 4Z" fill="white"/>
<path d="M10.6301 18.4965C10.6687 18.5012 10.7078 18.5012 10.7463 18.4965L12.6831 18.0125C12.769 17.9921 12.8477 17.9485 12.9106 17.8866L18.8612 11.9185C19.0416 11.7371 19.1428 11.4918 19.1428 11.236C19.1428 10.9803 19.0416 10.7349 18.8612 10.5535L18.0962 9.78392C18.0063 9.69391 17.8995 9.62251 17.7819 9.57379C17.6644 9.52508 17.5384 9.5 17.4111 9.5C17.2838 9.5 17.1578 9.52508 17.0403 9.57379C16.9227 9.62251 16.8159 9.69391 16.726 9.78392L10.7754 15.7327C10.7128 15.7959 10.6678 15.8743 10.6447 15.9602L10.1605 17.8963C10.1431 17.9589 10.1385 18.0244 10.1469 18.0889C10.1554 18.1533 10.1768 18.2154 10.2098 18.2714C10.2427 18.3274 10.2867 18.3762 10.3389 18.4149C10.3912 18.4536 10.4507 18.4813 10.5139 18.4965C10.5525 18.5012 10.5915 18.5012 10.6301 18.4965ZM17.4087 10.4664L18.1785 11.236L17.4087 12.0056L16.6437 11.236L17.4087 10.4664ZM11.5549 16.3232L15.9561 11.9185L16.726 12.6881L12.3199 17.0928L11.2983 17.3445L11.5549 16.3232Z" fill="white"/>
</svg>
