<svg width="20" height="20" viewBox="0 0 20 20" fill="none" xmlns="http://www.w3.org/2000/svg">
<path d="M6 8.5C6 8.36739 6.05268 8.24021 6.14645 8.14645C6.24021 8.05268 6.36739 8 6.5 8H13.5C13.6326 8 13.7598 8.05268 13.8536 8.14645C13.9473 8.24021 14 8.36739 14 8.5C14 8.63261 13.9473 8.75979 13.8536 8.85355C13.7598 8.94732 13.6326 9 13.5 9H6.5C6.36739 9 6.24021 8.94732 6.14645 8.85355C6.05268 8.75979 6 8.63261 6 8.5ZM6.5 11C6.36739 11 6.24021 11.0527 6.14645 11.1464C6.05268 11.2402 6 11.3674 6 11.5C6 11.6326 6.05268 11.7598 6.14645 11.8536C6.24021 11.9473 6.36739 12 6.5 12H9.5C9.63261 12 9.75979 11.9473 9.85355 11.8536C9.94732 11.7598 10 11.6326 10 11.5C10 11.3674 9.94732 11.2402 9.85355 11.1464C9.75979 11.0527 9.63261 11 9.5 11H6.5ZM6 14.5C6 14.3674 6.05268 14.2402 6.14645 14.1464C6.24021 14.0527 6.36739 14 6.5 14H10.944L10.274 14.67C10.1706 14.7733 10.0744 14.8836 9.986 15H6.5C6.36739 15 6.24021 14.9473 6.14645 14.8536C6.05268 14.7598 6 14.6326 6 14.5ZM9.221 17H5.5C5.36739 17 5.24021 16.9473 5.14645 16.8536C5.05268 16.7598 5 16.6326 5 16.5V4.5C5 4.36739 5.05268 4.24022 5.14645 4.14645C5.24021 4.05268 5.36739 4 5.5 4H7.085C7.18844 4.29258 7.38008 4.54587 7.63351 4.72497C7.88694 4.90407 8.18967 5.00016 8.5 5H11.5C11.8103 5.00016 12.1131 4.90407 12.3665 4.72497C12.6199 4.54587 12.8116 4.29258 12.915 4H14.5C14.6326 4 14.7598 4.05268 14.8536 4.14645C14.9473 4.24022 15 4.36739 15 4.5V9.944L15.103 9.841C15.369 9.575 15.674 9.371 16 9.232V4.5C16 4.10218 15.842 3.72064 15.5607 3.43934C15.2794 3.15804 14.8978 3 14.5 3H12.915C12.8116 2.70742 12.6199 2.45413 12.3665 2.27503C12.1131 2.09593 11.8103 1.99984 11.5 2H8.5C8.18967 1.99984 7.88694 2.09593 7.63351 2.27503C7.38008 2.45413 7.18844 2.70742 7.085 3H5.5C5.10218 3 4.72064 3.15804 4.43934 3.43934C4.15804 3.72064 4 4.10218 4 4.5V16.5C4 16.8978 4.15804 17.2794 4.43934 17.5607C4.72064 17.842 5.10218 18 5.5 18H9.004C9.01147 17.8829 9.02955 17.7668 9.058 17.653L9.221 17ZM12 3.5C12 3.63261 11.9473 3.75979 11.8536 3.85355C11.7598 3.94732 11.6326 4 11.5 4H8.5C8.36739 4 8.24021 3.94732 8.14645 3.85355C8.05268 3.75979 8 3.63261 8 3.5C8 3.36739 8.05268 3.24022 8.14645 3.14645C8.24021 3.05268 8.36739 3 8.5 3H11.5C11.6326 3 11.7598 3.05268 11.8536 3.14645C11.9473 3.24022 12 3.36739 12 3.5Z" fill="black"/>
<path d="M10.4873 17.9965C10.5259 18.0012 10.5649 18.0012 10.6035 17.9965L12.5403 17.5125C12.6262 17.4921 12.7049 17.4485 12.7678 17.3866L18.7184 11.4185C18.8988 11.2371 19 10.9918 19 10.736C19 10.4803 18.8988 10.2349 18.7184 10.0535L17.9534 9.28392C17.8635 9.19391 17.7567 9.12251 17.6391 9.07379C17.5216 9.02508 17.3955 9 17.2683 9C17.141 9 17.015 9.02508 16.8975 9.07379C16.7799 9.12251 16.6731 9.19391 16.5832 9.28392L10.6326 15.2327C10.57 15.2959 10.525 15.3743 10.5018 15.4602L10.0177 17.3963C10.0003 17.4589 9.99566 17.5244 10.0041 17.5889C10.0126 17.6533 10.0339 17.7154 10.0669 17.7714C10.0999 17.8274 10.1439 17.8762 10.1961 17.9149C10.2484 17.9536 10.3079 17.9813 10.3711 17.9965C10.4097 18.0012 10.4487 18.0012 10.4873 17.9965ZM17.2659 9.96641L18.0357 10.736L17.2659 11.5056L16.5009 10.736L17.2659 9.96641ZM11.4121 15.8232L15.8133 11.4185L16.5832 12.1881L12.1771 16.5928L11.1555 16.8445L11.4121 15.8232Z" fill="black"/>
</svg>
