<svg width="16" height="16" viewBox="0 0 16 16" fill="none" xmlns="http://www.w3.org/2000/svg">
<path d="M13.6302 12.4257L10.8736 9.66916C11.5373 8.78566 11.8955 7.71027 11.8943 6.60529C11.8943 3.78283 9.59804 1.48654 6.77558 1.48654C3.95312 1.48654 1.65683 3.78283 1.65683 6.60529C1.65683 9.42775 3.95312 11.724 6.77558 11.724C7.88056 11.7252 8.95595 11.367 9.83944 10.7033L12.596 13.4599C12.7355 13.5846 12.9175 13.6512 13.1046 13.646C13.2917 13.6407 13.4697 13.5641 13.602 13.4317C13.7344 13.2994 13.811 13.1214 13.8162 12.9343C13.8215 12.7472 13.7549 12.5652 13.6302 12.4257ZM3.11933 6.60529C3.11933 5.88215 3.33376 5.17525 3.73552 4.57399C4.13727 3.97272 4.7083 3.50409 5.37639 3.22736C6.04448 2.95062 6.77963 2.87822 7.48888 3.01929C8.19812 3.16037 8.8496 3.5086 9.36094 4.01993C9.87227 4.53127 10.2205 5.18275 10.3616 5.89199C10.5026 6.60123 10.4302 7.33638 10.1535 8.00447C9.87678 8.67257 9.40815 9.24359 8.80688 9.64535C8.20561 10.0471 7.49872 10.2615 6.77558 10.2615C5.80624 10.2604 4.87693 9.87479 4.1915 9.18936C3.50608 8.50394 3.12049 7.57463 3.11933 6.60529Z" fill="#2D3748"/>
</svg>
