<svg width="24" height="24" viewBox="0 0 24 24" fill="none" xmlns="http://www.w3.org/2000/svg">
<path d="M16.125 1.875V2.9295C15.5101 3.0351 14.9262 3.27533 14.415 3.633L13.641 2.9055L12.6097 4.008L13.3597 4.71075C13.0166 5.21077 12.7847 5.77852 12.6795 6.37575H11.625V7.87575H12.6795C12.789 8.49825 13.035 9.06525 13.383 9.56325L12.5857 10.3358L13.6657 11.4158L14.4382 10.6178C14.9362 10.9658 15.5032 11.2118 16.1257 11.3213V12.375H17.6257V11.3205C18.2229 11.2156 18.7907 10.9839 19.2907 10.641L19.9927 11.391L21.0952 10.359L20.3677 9.5865C20.7202 9.084 20.9602 8.50275 21.0712 7.875H22.125V6.375H21.0705C20.9625 5.76773 20.7224 5.19162 20.367 4.6875L21.0705 3.984L20.0152 2.9295L19.3125 3.633C18.8084 3.27763 18.2323 3.03745 17.625 2.9295V1.875H16.125ZM16.875 4.35975C17.2388 4.35736 17.5995 4.42725 17.9361 4.56536C18.2728 4.70347 18.5786 4.90705 18.8359 5.1643C19.0932 5.42154 19.2969 5.72733 19.4351 6.06391C19.5733 6.40049 19.6433 6.76116 19.641 7.125C19.641 8.66625 18.4162 9.891 16.875 9.891C15.3337 9.891 14.109 8.66625 14.109 7.125C14.109 5.58375 15.3337 4.359 16.875 4.359V4.35975ZM7.14749 8.7885L5.76599 9.351L6.30449 10.7085C5.58765 11.1375 4.98466 11.7328 4.54649 12.444L3.21149 11.904L2.64899 13.2878L3.98399 13.8263C3.87862 14.232 3.82371 14.6491 3.82049 15.0683C3.82049 15.4958 3.88424 15.9128 3.98399 16.3103L2.64899 16.8503L3.21149 18.2325L4.54649 17.6925C4.98066 18.4131 5.58412 19.0168 6.30449 19.4513L5.76449 20.7863L7.14824 21.3488L7.68824 20.0138C8.09389 20.1194 8.51107 20.1743 8.93024 20.1773C9.35774 20.1773 9.77624 20.1135 10.1722 20.0138L10.7122 21.3488L12.0945 20.7863L11.5545 19.4513C12.2662 19.0137 12.8616 18.4106 13.29 17.6933L14.6475 18.2318L15.21 16.8495L13.8525 16.3095C13.95 15.912 14.016 15.4943 14.016 15.0675C14.016 14.64 13.9507 14.2215 13.851 13.8248L15.2107 13.2863L14.6482 11.9025L13.2907 12.4425C12.8599 11.7331 12.2647 11.1378 11.5552 10.707L12.0952 9.3495L10.7115 8.787L10.1737 10.1445C9.76767 10.0398 9.35032 9.98515 8.93099 9.98175C8.50349 9.98175 8.08649 10.0463 7.68899 10.1453L7.14899 8.78775L7.14749 8.7885ZM8.92949 11.4825C10.9267 11.4825 12.5145 13.0725 12.5145 15.069C12.516 17.0663 10.9267 18.678 8.92949 18.678C8.45538 18.6786 7.98581 18.5856 7.54768 18.4045C7.10955 18.2233 6.71146 17.9575 6.37622 17.6223C6.04097 17.287 5.77516 16.8889 5.594 16.4508C5.41284 16.0127 5.31989 15.5431 5.32049 15.069C5.32049 13.0718 6.93299 11.4825 8.92949 11.4825V11.4825Z" fill="black"/>
</svg>
