<svg width="25" height="25" viewBox="0 0 25 25" fill="none" xmlns="http://www.w3.org/2000/svg">
<path d="M16.5536 2.375V3.4295C15.9387 3.5351 15.3548 3.77533 14.8436 4.133L14.0696 3.4055L13.0383 4.508L13.7883 5.21075C13.4452 5.71077 13.2133 6.27852 13.1081 6.87575H12.0536V8.37575H13.1081C13.2176 8.99825 13.4636 9.56525 13.8116 10.0633L13.0143 10.8358L14.0943 11.9158L14.8668 11.1178C15.3648 11.4658 15.9318 11.7118 16.5543 11.8213V12.875H18.0543V11.8205C18.6515 11.7156 19.2193 11.4839 19.7193 11.141L20.4213 11.891L21.5238 10.859L20.7963 10.0865C21.1488 9.584 21.3888 9.00275 21.4998 8.375H22.5536V6.875H21.4991C21.3911 6.26773 21.151 5.69162 20.7956 5.1875L21.4991 4.484L20.4438 3.4295L19.7411 4.133C19.237 3.77763 18.6608 3.53745 18.0536 3.4295V2.375H16.5536ZM17.3036 4.85975C17.6674 4.85736 18.0281 4.92725 18.3647 5.06536C18.7013 5.20347 19.0072 5.40705 19.2645 5.6643C19.5218 5.92154 19.7255 6.22733 19.8637 6.56391C20.0019 6.90049 20.0719 7.26116 20.0696 7.625C20.0696 9.16625 18.8448 10.391 17.3036 10.391C15.7623 10.391 14.5376 9.16625 14.5376 7.625C14.5376 6.08375 15.7623 4.859 17.3036 4.859V4.85975ZM7.57608 9.2885L6.19458 9.851L6.73308 11.2085C6.01624 11.6375 5.41325 12.2328 4.97508 12.944L3.64008 12.404L3.07758 13.7878L4.41258 14.3263C4.30721 14.732 4.2523 15.1491 4.24908 15.5683C4.24908 15.9958 4.31283 16.4128 4.41258 16.8103L3.07758 17.3503L3.64008 18.7325L4.97508 18.1925C5.40925 18.9131 6.01271 19.5168 6.73308 19.9513L6.19308 21.2863L7.57683 21.8488L8.11683 20.5138C8.52248 20.6194 8.93966 20.6743 9.35883 20.6773C9.78633 20.6773 10.2048 20.6135 10.6008 20.5138L11.1408 21.8488L12.5231 21.2863L11.9831 19.9513C12.6948 19.5137 13.2902 18.9106 13.7186 18.1933L15.0761 18.7318L15.6386 17.3495L14.2811 16.8095C14.3786 16.412 14.4446 15.9943 14.4446 15.5675C14.4446 15.14 14.3793 14.7215 14.2796 14.3248L15.6393 13.7863L15.0768 12.4025L13.7193 12.9425C13.2885 12.2331 12.6933 11.6378 11.9838 11.207L12.5238 9.8495L11.1401 9.287L10.6023 10.6445C10.1963 10.5398 9.77891 10.4852 9.35958 10.4818C8.93208 10.4818 8.51508 10.5463 8.11758 10.6453L7.57758 9.28775L7.57608 9.2885ZM9.35808 11.9825C11.3553 11.9825 12.9431 13.5725 12.9431 15.569C12.9446 17.5663 11.3553 19.178 9.35808 19.178C8.88397 19.1786 8.4144 19.0856 7.97627 18.9045C7.53814 18.7233 7.14005 18.4575 6.80481 18.1223C6.46956 17.787 6.20375 17.3889 6.02259 16.9508C5.84143 16.5127 5.74848 16.0431 5.74908 15.569C5.74908 13.5718 7.36158 11.9825 9.35808 11.9825V11.9825Z" fill="white"/>
</svg>
